<?xml version="1.0" encoding="utf-8"?>
<!-- Generator: Adobe Illustrator 16.0.0, SVG Export Plug-In . SVG Version: 6.00 Build 0)  -->
<!DOCTYPE svg PUBLIC "-//W3C//DTD SVG 1.1//EN" "http://www.w3.org/Graphics/SVG/1.1/DTD/svg11.dtd">
<svg version="1.1" id="Capa_1" xmlns="http://www.w3.org/2000/svg" xmlns:xlink="http://www.w3.org/1999/xlink" x="0px" y="0px"
	 width="1251.784px" height="438.632px" viewBox="0 0 1251.784 438.632" enable-background="new 0 0 1251.784 438.632"
	 xml:space="preserve">
<rect x="413.271" y="81.655" fill="#DF2118" width="10.255" height="303.822"/>
<g>
	<g>
		<path fill="#E0040B" d="M7.994,438.632h113.189l29.644-78.782h76.327h2.444h76.326l29.646,78.782l40.851-192.428l0,0
			L294.474,26.652h-64.875h-2.444h-64.877L7.994,438.632z M187.117,259.834l41.244-118.313l44.956,118.313H187.117z"/>
	</g>
</g>
<g>
	<polygon fill="#963532" points="335.57,438.632 376.42,246.204 243.854,384.557 	"/>
</g>
<g>
	<path fill="#E0040B" d="M528.979,26.959h28.896l40.821,109.163h-29.66l-6.728-19.57H524.24l-6.88,19.57h-29.202L528.979,26.959z
		 M530.814,95.454h24.769l-12.078-38.222h-0.307L530.814,95.454z"/>
	<path d="M653.738,73.591h-16.054v36.082c0,6.269,3.67,7.645,9.326,7.645c2.141,0,4.435-0.306,6.728-0.306v19.111
		c-4.739,0.153-9.479,0.765-14.219,0.765c-22.169,0-27.826-6.421-27.826-27.979V73.591h-13.148V56.773h13.148V32.77h25.991v24.003
		h16.054V73.591z"/>
	<path d="M666.274,26.959h25.991v109.163h-25.991V26.959z"/>
	<path d="M709.541,81.235c0.459-10.396,5.352-17.124,12.384-21.251c7.033-3.975,16.207-5.504,25.228-5.504
		c18.805,0,36.999,4.128,36.999,26.603v34.706c0,6.727,0,14.066,3.058,20.334h-26.145c-0.917-2.446-1.223-4.892-1.528-7.491
		c-6.728,7.033-16.665,9.785-26.145,9.785c-15.136,0-27.062-7.645-27.062-24.003c0-25.838,28.132-23.851,46.173-27.521
		c4.434-0.917,6.88-2.446,6.88-7.338c0-5.963-7.186-8.256-12.537-8.256c-7.186,0-11.772,3.211-12.995,9.938H709.541z
		 M743.176,122.363c12.384,0,16.512-7.033,15.9-23.392c-3.669,2.293-10.396,2.752-16.053,4.281
		c-5.811,1.376-10.703,3.822-10.703,10.091C732.321,119.764,737.367,122.363,743.176,122.363z"/>
	<path d="M801.273,56.773H826.5v10.855h0.306c4.74-8.104,15.442-13.149,24.921-13.149c26.45,0,28.591,19.264,28.591,30.731v50.912
		h-25.991V97.748c0-10.855,1.223-21.863-12.996-21.863c-9.784,0-14.065,8.256-14.065,16.971v43.268h-25.991V56.773z"/>
	<path d="M945.448,73.591h-16.054v36.082c0,6.269,3.669,7.645,9.326,7.645c2.141,0,4.434-0.306,6.728-0.306v19.111
		c-4.74,0.153-9.479,0.765-14.219,0.765c-22.169,0-27.826-6.421-27.826-27.979V73.591h-13.148V56.773h13.148V32.77h25.991v24.003
		h16.054V73.591z"/>
	<path d="M983.975,46.835h-25.991V26.959h25.991V46.835z M957.984,56.773h25.991v79.35h-25.991V56.773z"/>
	<path d="M1022.501,109.979c0,3.975,1.683,6.88,4.281,8.868c2.446,1.834,5.963,2.752,9.632,2.752c5.046,0,12.231-2.14,12.231-8.409
		c0-6.116-8.104-7.339-12.689-8.409c-16.359-4.128-36.847-4.586-36.847-25.991c0-19.111,20.64-24.31,36.234-24.31
		c17.43,0,35.623,5.045,36.541,25.686h-24.004c0-3.363-1.223-5.504-3.363-6.88s-5.046-1.988-8.256-1.988
		c-4.281,0-11.161,0.459-11.161,5.963c0,7.492,17.43,8.868,29.354,11.467c16.054,3.21,20.182,14.83,20.182,21.404
		c0,21.252-20.182,28.285-38.069,28.285c-18.806,0-38.069-6.269-38.834-28.438H1022.501z"/>
	<path fill="#E0040B" d="M499.319,159.896h28.438v84.701h50.912v24.462h-79.35V159.896z"/>
	<path d="M590.593,214.171c0.459-10.396,5.352-17.124,12.384-21.251c7.033-3.975,16.207-5.504,25.228-5.504
		c18.805,0,36.999,4.128,36.999,26.603v34.706c0,6.727,0,14.066,3.058,20.334h-26.144c-0.918-2.446-1.224-4.892-1.529-7.491
		c-6.728,7.033-16.665,9.785-26.145,9.785c-15.136,0-27.061-7.645-27.061-24.003c0-25.838,28.131-23.851,46.172-27.52
		c4.434-0.917,6.88-2.446,6.88-7.339c0-5.963-7.186-8.256-12.536-8.256c-7.187,0-11.772,3.21-12.996,9.938H590.593z
		 M624.229,255.299c12.384,0,16.512-7.033,15.9-23.392c-3.669,2.293-10.396,2.752-16.053,4.281
		c-5.811,1.376-10.703,3.822-10.703,10.091C613.374,252.7,618.419,255.299,624.229,255.299z"/>
	<path d="M682.327,189.709h25.227v10.855h0.306c4.739-8.104,15.441-13.148,24.921-13.148c26.45,0,28.591,19.264,28.591,30.73v50.912
		h-25.991v-38.375c0-10.855,1.223-21.863-12.996-21.863c-9.785,0-14.065,8.256-14.065,16.971v43.268h-25.991V189.709z"/>
	<path d="M855.397,259.427c0,12.996-2.446,37.458-39.599,37.458c-18.5,0-35.929-4.128-38.987-25.38h25.992
		c0.611,3.517,1.987,5.657,4.434,6.88c2.293,1.223,5.504,1.682,9.479,1.682c12.385,0,13.607-8.715,13.607-18.5v-7.492h-0.306
		c-4.739,7.339-12.689,11.62-21.099,11.62c-24.004,0-34.859-17.124-34.859-39.445c0-21.099,12.385-38.834,34.859-38.834
		c9.479,0,16.665,4.128,21.252,12.231h0.306v-9.938h24.921V259.427z M815.187,207.292c-11.467,0-15.136,10.091-15.136,19.875
		c0,9.326,4.28,18.653,14.982,18.653c11.008,0,15.748-8.562,15.748-18.5C830.782,217.229,826.806,207.292,815.187,207.292z"/>
	<path d="M950.953,269.059h-25.228v-10.855h-0.306c-4.893,8.103-14.983,13.148-24.156,13.148c-22.78,0-29.354-13.148-29.354-33.941
		v-47.702H897.9v46.02c0,10.549,4.586,14.219,12.843,14.219c5.656,0,14.219-3.669,14.219-17.735v-42.503h25.991V269.059z"/>
	<path d="M967.311,214.171c0.459-10.396,5.352-17.124,12.384-21.251c7.033-3.975,16.206-5.504,25.227-5.504
		c18.806,0,37,4.128,37,26.603v34.706c0,6.727,0,14.066,3.058,20.334h-26.145c-0.917-2.446-1.223-4.892-1.528-7.491
		c-6.728,7.033-16.665,9.785-26.145,9.785c-15.136,0-27.062-7.645-27.062-24.003c0-25.838,28.132-23.851,46.173-27.52
		c4.434-0.917,6.88-2.446,6.88-7.339c0-5.963-7.186-8.256-12.537-8.256c-7.186,0-11.772,3.21-12.995,9.938H967.311z
		 M1000.947,255.299c12.384,0,16.512-7.033,15.9-23.392c-3.669,2.293-10.396,2.752-16.054,4.281
		c-5.81,1.376-10.702,3.822-10.702,10.091C990.091,252.7,995.137,255.299,1000.947,255.299z"/>
	<path d="M1135.793,259.427c0,12.996-2.445,37.458-39.598,37.458c-18.5,0-35.93-4.128-38.987-25.38h25.991
		c0.611,3.517,1.988,5.657,4.434,6.88c2.294,1.223,5.504,1.682,9.479,1.682c12.384,0,13.607-8.715,13.607-18.5v-7.492h-0.306
		c-4.74,7.339-12.69,11.62-21.1,11.62c-24.003,0-34.858-17.124-34.858-39.445c0-21.099,12.384-38.834,34.858-38.834
		c9.479,0,16.666,4.128,21.252,12.231h0.306v-9.938h24.921V259.427z M1095.584,207.292c-11.467,0-15.137,10.091-15.137,19.875
		c0,9.326,4.281,18.653,14.983,18.653c11.008,0,15.747-8.562,15.747-18.5C1111.178,217.229,1107.204,207.292,1095.584,207.292z"/>
	<path d="M1174.627,235.729c0.459,10.855,6.728,18.041,17.735,18.041c6.269,0,12.384-2.905,14.83-8.715h24.31
		c-4.739,18.347-21.71,26.297-39.445,26.297c-25.838,0-43.421-15.595-43.421-42.197c0-24.31,19.417-41.739,42.81-41.739
		c28.438,0,42.656,21.404,41.433,48.313H1174.627z M1206.887,221.205c-0.458-8.868-6.727-16.207-15.441-16.207
		c-9.174,0-15.289,6.574-16.818,16.207H1206.887z"/>
	<path fill="#E0040B" d="M499.319,303.485h28.438v109.163h-28.438V303.485z"/>
	<path d="M546.408,333.299h25.227v10.855h0.306c4.739-8.103,15.442-13.148,24.921-13.148c26.45,0,28.591,19.264,28.591,30.731
		v50.912H599.46v-38.375c0-10.855,1.223-21.864-12.996-21.864c-9.785,0-14.065,8.256-14.065,16.971v43.268h-25.991V333.299z"/>
	<path d="M662.909,386.504c0,3.976,1.682,6.88,4.28,8.868c2.446,1.834,5.963,2.752,9.633,2.752c5.045,0,12.23-2.141,12.23-8.409
		c0-6.115-8.103-7.339-12.689-8.409c-16.359-4.128-36.847-4.586-36.847-25.991c0-19.111,20.641-24.31,36.235-24.31
		c17.429,0,35.623,5.045,36.54,25.686h-24.004c0-3.364-1.223-5.504-3.363-6.88s-5.045-1.987-8.256-1.987
		c-4.281,0-11.161,0.458-11.161,5.962c0,7.492,17.43,8.868,29.354,11.467c16.054,3.211,20.182,14.831,20.182,21.405
		c0,21.252-20.182,28.284-38.069,28.284c-18.806,0-38.069-6.269-38.834-28.438H662.909z"/>
	<path d="M775.588,350.117h-16.053v36.082c0,6.269,3.669,7.645,9.326,7.645c2.141,0,4.434-0.306,6.727-0.306v19.111
		c-4.739,0.152-9.479,0.765-14.218,0.765c-22.169,0-27.826-6.422-27.826-27.979v-35.317h-13.148v-16.818h13.148v-24.004h25.991
		v24.004h16.053V350.117z"/>
	<path d="M814.117,323.361h-25.991v-19.875h25.991V323.361z M788.125,333.299h25.991v79.35h-25.991V333.299z"/>
	<path d="M880.317,350.117h-16.054v36.082c0,6.269,3.669,7.645,9.326,7.645c2.141,0,4.434-0.306,6.728-0.306v19.111
		c-4.74,0.152-9.479,0.765-14.219,0.765c-22.17,0-27.826-6.422-27.826-27.979v-35.317h-13.148v-16.818h13.148v-24.004h25.991v24.004
		h16.054V350.117z"/>
	<path d="M970.827,412.648H945.6v-10.855h-0.306c-4.893,8.104-14.983,13.148-24.157,13.148c-22.78,0-29.354-13.148-29.354-33.941
		v-47.701h25.991v46.02c0,10.55,4.587,14.219,12.843,14.219c5.657,0,14.219-3.669,14.219-17.735v-42.503h25.991V412.648z"/>
	<path d="M1036.11,350.117h-16.054v36.082c0,6.269,3.67,7.645,9.327,7.645c2.14,0,4.434-0.306,6.727-0.306v19.111
		c-4.739,0.152-9.479,0.765-14.219,0.765c-22.169,0-27.826-6.422-27.826-27.979v-35.317h-13.148v-16.818h13.148v-24.004h25.991
		v24.004h16.054V350.117z"/>
	<path d="M1069.898,379.318c0.459,10.855,6.728,18.041,17.735,18.041c6.269,0,12.384-2.905,14.83-8.715h24.31
		c-4.739,18.347-21.71,26.297-39.445,26.297c-25.839,0-43.421-15.595-43.421-42.197c0-24.31,19.417-41.739,42.81-41.739
		c28.437,0,42.655,21.404,41.433,48.313H1069.898z M1102.158,364.794c-0.459-8.868-6.728-16.207-15.441-16.207
		c-9.174,0-15.289,6.575-16.818,16.207H1102.158z"/>
</g>
</svg>
