<?xml version="1.0" encoding="utf-8"?>
<!-- Generator: Adobe Illustrator 16.0.0, SVG Export Plug-In . SVG Version: 6.00 Build 0)  -->
<!DOCTYPE svg PUBLIC "-//W3C//DTD SVG 1.1//EN" "http://www.w3.org/Graphics/SVG/1.1/DTD/svg11.dtd">
<svg version="1.1" id="Capa_1" xmlns="http://www.w3.org/2000/svg" xmlns:xlink="http://www.w3.org/1999/xlink" x="0px" y="0px"
	 width="131.46px" height="36.549px" viewBox="0 0 131.46 36.549" enable-background="new 0 0 131.46 36.549" xml:space="preserve">
<rect x="41.458" y="4.88" fill="#DF2118" width="0.91" height="26.953"/>
<g>
	<g>
		<path fill="#E0040B" d="M0,36.549h10.042l2.63-6.989h6.771h0.217h6.771l2.63,6.989l3.625-17.071l0,0L25.415,0H19.66h-0.217h-5.756
			L0,36.549z M15.891,20.687L19.55,10.19l3.988,10.496H15.891z"/>
	</g>
</g>
<g>
	<polygon fill="#963532" points="29.061,36.549 32.685,19.478 20.924,31.752 	"/>
</g>
<path d="M58.644,4.358l4.709,12.594h-2.875l-0.953-2.805h-4.71l-0.988,2.805H51.04l4.762-12.594H58.644z M58.8,12.084l-1.587-4.622
	H57.18l-1.641,4.622H58.8z"/>
<path d="M68.769,7.833v1.676h-1.834v4.516c0,0.422,0.07,0.706,0.211,0.846c0.141,0.143,0.423,0.213,0.847,0.213
	c0.141,0,0.277-0.005,0.406-0.018c0.127-0.013,0.253-0.029,0.371-0.053v1.939c-0.211,0.035-0.448,0.059-0.705,0.07
	c-0.26,0.012-0.513,0.018-0.761,0.018c-0.387,0-0.756-0.025-1.101-0.079c-0.348-0.054-0.653-0.155-0.918-0.309
	c-0.267-0.153-0.473-0.371-0.627-0.653c-0.151-0.28-0.23-0.652-0.23-1.11v-5.38h-1.517V7.833h1.517V5.099h2.507v2.734H68.769z"/>
<path d="M72.824,4.358v12.594H70.32V4.358H72.824z"/>
<path d="M74.27,10.637c0.037-0.587,0.183-1.074,0.442-1.464c0.258-0.387,0.587-0.699,0.987-0.935c0.4-0.235,0.85-0.402,1.35-0.503
	c0.501-0.1,1.003-0.15,1.511-0.15c0.458,0,0.922,0.033,1.392,0.098c0.468,0.065,0.899,0.19,1.285,0.379
	c0.391,0.189,0.707,0.451,0.952,0.785c0.249,0.336,0.371,0.779,0.371,1.332v4.745c0,0.411,0.025,0.805,0.074,1.182
	c0.044,0.376,0.128,0.66,0.246,0.847h-2.541c-0.047-0.141-0.087-0.285-0.115-0.432c-0.029-0.147-0.05-0.298-0.06-0.451
	c-0.403,0.412-0.874,0.701-1.415,0.866c-0.542,0.164-1.091,0.247-1.657,0.247c-0.433,0-0.839-0.055-1.215-0.16
	c-0.378-0.106-0.708-0.271-0.99-0.494c-0.282-0.222-0.502-0.506-0.659-0.846c-0.162-0.342-0.241-0.747-0.241-1.218
	c0-0.517,0.091-0.943,0.275-1.278c0.183-0.335,0.417-0.604,0.705-0.804c0.289-0.198,0.617-0.35,0.989-0.449
	c0.369-0.1,0.743-0.179,1.121-0.239c0.374-0.058,0.745-0.104,1.11-0.14c0.364-0.035,0.688-0.087,0.97-0.158
	c0.28-0.071,0.504-0.174,0.67-0.309c0.164-0.135,0.24-0.332,0.229-0.592c0-0.27-0.044-0.484-0.13-0.645
	c-0.091-0.158-0.207-0.282-0.356-0.369c-0.146-0.089-0.315-0.146-0.512-0.177c-0.19-0.03-0.403-0.044-0.625-0.044
	c-0.493,0-0.879,0.106-1.162,0.317c-0.285,0.212-0.447,0.564-0.495,1.058H74.27z M80.056,12.489
	c-0.104,0.094-0.237,0.168-0.397,0.221c-0.159,0.052-0.329,0.098-0.513,0.133c-0.18,0.034-0.371,0.064-0.572,0.088
	c-0.198,0.022-0.399,0.053-0.601,0.088c-0.186,0.035-0.374,0.082-0.554,0.142c-0.184,0.058-0.343,0.138-0.475,0.238
	c-0.138,0.1-0.246,0.226-0.328,0.379c-0.081,0.151-0.123,0.347-0.123,0.582c0,0.224,0.042,0.411,0.123,0.564
	c0.082,0.154,0.193,0.273,0.335,0.361c0.141,0.09,0.305,0.15,0.494,0.187c0.188,0.035,0.381,0.053,0.583,0.053
	c0.494,0,0.874-0.083,1.147-0.248c0.269-0.165,0.471-0.361,0.599-0.591c0.128-0.229,0.209-0.461,0.237-0.698
	c0.029-0.233,0.044-0.421,0.044-0.563V12.489z"/>
<path d="M86.459,7.833v1.271h0.052c0.318-0.529,0.73-0.915,1.234-1.155c0.507-0.242,1.024-0.363,1.552-0.363
	c0.672,0,1.224,0.093,1.65,0.274c0.431,0.183,0.769,0.436,1.014,0.758c0.25,0.324,0.42,0.719,0.521,1.183
	c0.1,0.464,0.149,0.979,0.149,1.543v5.609h-2.503v-5.15c0-0.753-0.119-1.314-0.353-1.686c-0.235-0.369-0.653-0.554-1.255-0.554
	c-0.682,0-1.176,0.202-1.481,0.606c-0.306,0.406-0.458,1.074-0.458,2.003v4.78h-2.504V7.833H86.459z"/>
<path d="M99.122,7.833v1.676h-1.834v4.516c0,0.422,0.073,0.706,0.214,0.846c0.142,0.143,0.424,0.213,0.845,0.213
	c0.141,0,0.277-0.005,0.408-0.018c0.127-0.013,0.253-0.029,0.368-0.053v1.939c-0.208,0.035-0.444,0.059-0.703,0.07
	c-0.258,0.012-0.512,0.018-0.761,0.018c-0.387,0-0.755-0.025-1.099-0.079c-0.347-0.054-0.655-0.155-0.917-0.309
	c-0.265-0.153-0.473-0.371-0.628-0.653c-0.151-0.28-0.229-0.652-0.229-1.11v-5.38h-1.517V7.833h1.517V5.099h2.503v2.734H99.122z"/>
<path d="M100.322,6.422V4.358h2.506v2.063H100.322z M102.828,7.833v9.119h-2.506V7.833H102.828z"/>
<path d="M106.487,14.686c0.114,0.193,0.26,0.353,0.435,0.477c0.174,0.123,0.378,0.213,0.608,0.273
	c0.228,0.058,0.466,0.089,0.713,0.089c0.175,0,0.361-0.021,0.554-0.063c0.196-0.042,0.372-0.106,0.53-0.194
	c0.157-0.088,0.291-0.205,0.398-0.353c0.104-0.147,0.157-0.332,0.157-0.556c0-0.376-0.25-0.659-0.747-0.847
	c-0.502-0.188-1.198-0.377-2.091-0.564c-0.365-0.083-0.721-0.18-1.069-0.291c-0.346-0.111-0.653-0.258-0.925-0.441
	c-0.27-0.183-0.489-0.409-0.654-0.688c-0.16-0.276-0.245-0.615-0.245-1.014c0-0.589,0.116-1.069,0.342-1.448
	c0.229-0.375,0.534-0.671,0.91-0.89s0.8-0.372,1.27-0.459c0.471-0.088,0.954-0.133,1.446-0.133c0.496,0,0.975,0.049,1.438,0.143
	c0.465,0.094,0.88,0.253,1.243,0.477c0.366,0.223,0.67,0.519,0.91,0.891c0.24,0.369,0.385,0.837,0.432,1.401h-2.382
	c-0.033-0.481-0.216-0.809-0.546-0.98c-0.328-0.17-0.715-0.254-1.163-0.254c-0.141,0-0.295,0.01-0.46,0.027
	c-0.165,0.017-0.314,0.055-0.45,0.113c-0.137,0.06-0.25,0.144-0.342,0.256c-0.097,0.112-0.144,0.262-0.144,0.45
	c0,0.224,0.083,0.406,0.249,0.548c0.165,0.14,0.379,0.254,0.643,0.344c0.264,0.088,0.567,0.167,0.91,0.236
	c0.34,0.07,0.688,0.147,1.041,0.231c0.362,0.082,0.721,0.182,1.065,0.299c0.348,0.117,0.656,0.274,0.926,0.468
	c0.271,0.192,0.491,0.436,0.653,0.723c0.165,0.289,0.248,0.645,0.248,1.067c0,0.601-0.124,1.104-0.364,1.508
	c-0.24,0.405-0.554,0.732-0.943,0.979c-0.387,0.247-0.831,0.421-1.33,0.521c-0.502,0.101-1.009,0.15-1.526,0.15
	c-0.528,0-1.047-0.055-1.553-0.16c-0.504-0.106-0.956-0.282-1.348-0.528c-0.395-0.248-0.718-0.573-0.97-0.979
	c-0.253-0.405-0.392-0.914-0.415-1.527h2.381C106.32,14.26,106.375,14.491,106.487,14.686z"/>
<path d="M60.958,30.2c-0.954,0.828-2.268,1.244-3.951,1.244c-1.704,0-3.024-0.412-3.96-1.235c-0.935-0.823-1.4-2.094-1.4-3.811
	v-7.831h2.767v7.831c0,0.343,0.029,0.676,0.089,1.005c0.057,0.332,0.183,0.621,0.371,0.874c0.188,0.255,0.447,0.459,0.784,0.616
	c0.334,0.161,0.785,0.239,1.349,0.239c0.988,0,1.669-0.22,2.046-0.662c0.376-0.439,0.565-1.132,0.565-2.072v-7.831h2.767v7.831
	C62.386,28.104,61.911,29.371,60.958,30.2z"/>
<path d="M66.111,22.042v1.271h0.053c0.317-0.53,0.728-0.914,1.233-1.157c0.506-0.24,1.024-0.359,1.555-0.359
	c0.668,0,1.217,0.09,1.647,0.272s0.768,0.436,1.013,0.759c0.249,0.324,0.42,0.717,0.52,1.182c0.103,0.465,0.153,0.979,0.153,1.544
	v5.608H69.78v-5.15c0-0.751-0.118-1.314-0.353-1.684c-0.235-0.372-0.653-0.557-1.255-0.557c-0.679,0-1.176,0.204-1.482,0.608
	c-0.306,0.405-0.458,1.074-0.458,2.002v4.78h-2.503v-9.119H66.111z"/>
<path d="M73.836,20.631v-2.063h2.504v2.063H73.836z M76.34,22.042v9.119h-2.504v-9.119H76.34z"/>
<path d="M80.503,31.161l-3.124-9.119h2.629l1.924,6.227h0.034l1.923-6.227h2.485l-3.086,9.119H80.503z"/>
<path d="M89.325,28.975c0.374,0.364,0.914,0.548,1.621,0.548c0.506,0,0.941-0.127,1.306-0.38c0.364-0.254,0.588-0.521,0.67-0.803
	h2.206c-0.354,1.093-0.894,1.875-1.623,2.346c-0.73,0.471-1.613,0.705-2.646,0.705c-0.718,0-1.364-0.113-1.941-0.344
	c-0.575-0.229-1.064-0.556-1.467-0.978c-0.396-0.424-0.705-0.93-0.924-1.518c-0.217-0.589-0.324-1.236-0.324-1.94
	c0-0.682,0.112-1.317,0.334-1.905s0.541-1.097,0.954-1.526c0.411-0.429,0.902-0.768,1.471-1.014c0.57-0.246,1.202-0.37,1.897-0.37
	c0.776,0,1.451,0.149,2.029,0.449c0.575,0.3,1.047,0.702,1.418,1.208c0.368,0.505,0.638,1.083,0.803,1.729
	c0.164,0.647,0.222,1.323,0.175,2.028h-6.578C88.738,28.021,88.945,28.61,89.325,28.975z M92.151,24.176
	c-0.297-0.328-0.753-0.492-1.364-0.492c-0.401,0-0.734,0.065-0.998,0.201c-0.264,0.136-0.476,0.304-0.634,0.504
	c-0.157,0.2-0.27,0.411-0.335,0.635s-0.103,0.423-0.115,0.601h4.074C92.661,24.987,92.453,24.507,92.151,24.176z"/>
<path d="M98.723,22.042v1.693h0.035c0.118-0.282,0.277-0.544,0.477-0.785c0.202-0.24,0.429-0.446,0.69-0.616
	c0.256-0.171,0.532-0.303,0.828-0.398c0.292-0.094,0.599-0.14,0.918-0.14c0.163,0,0.344,0.028,0.545,0.088v2.328
	c-0.117-0.023-0.259-0.043-0.423-0.063c-0.164-0.017-0.324-0.025-0.477-0.025c-0.459,0-0.846,0.076-1.164,0.229
	c-0.317,0.153-0.572,0.36-0.766,0.626c-0.196,0.264-0.335,0.573-0.416,0.925c-0.084,0.354-0.123,0.736-0.123,1.147v4.109h-2.506
	v-9.119H98.723z"/>
<path d="M105.241,28.894c0.112,0.195,0.257,0.354,0.433,0.478c0.175,0.125,0.379,0.215,0.607,0.274
	c0.23,0.058,0.471,0.089,0.716,0.089c0.175,0,0.363-0.021,0.554-0.063c0.193-0.04,0.37-0.106,0.53-0.195
	c0.158-0.085,0.29-0.203,0.396-0.352c0.105-0.147,0.158-0.332,0.158-0.555c0-0.377-0.249-0.658-0.748-0.847s-1.197-0.376-2.09-0.565
	c-0.364-0.083-0.721-0.18-1.07-0.291c-0.345-0.111-0.653-0.258-0.924-0.441c-0.27-0.183-0.487-0.41-0.651-0.688
	c-0.167-0.275-0.248-0.613-0.248-1.015c0-0.588,0.114-1.069,0.344-1.446c0.228-0.376,0.53-0.672,0.906-0.891
	c0.376-0.217,0.8-0.37,1.271-0.457c0.47-0.09,0.955-0.133,1.446-0.133c0.494,0,0.974,0.046,1.44,0.14
	c0.461,0.096,0.877,0.254,1.241,0.477c0.366,0.224,0.669,0.521,0.91,0.891c0.239,0.371,0.383,0.838,0.43,1.403h-2.377
	c-0.038-0.482-0.22-0.809-0.549-0.98c-0.329-0.169-0.716-0.254-1.165-0.254c-0.139,0-0.29,0.007-0.458,0.026
	c-0.163,0.017-0.315,0.056-0.448,0.115c-0.137,0.058-0.251,0.143-0.346,0.254c-0.091,0.113-0.141,0.263-0.141,0.45
	c0,0.225,0.084,0.405,0.249,0.547c0.162,0.141,0.379,0.257,0.643,0.344c0.264,0.088,0.567,0.167,0.91,0.238
	c0.339,0.069,0.687,0.149,1.04,0.229c0.365,0.081,0.718,0.184,1.065,0.3c0.348,0.116,0.657,0.272,0.929,0.467
	c0.268,0.194,0.486,0.436,0.65,0.723c0.168,0.288,0.249,0.645,0.249,1.068c0,0.6-0.122,1.104-0.363,1.508
	c-0.24,0.407-0.554,0.732-0.941,0.979c-0.388,0.246-0.834,0.422-1.332,0.521c-0.5,0.101-1.01,0.149-1.527,0.149
	c-0.527,0-1.045-0.052-1.552-0.158c-0.504-0.105-0.954-0.282-1.349-0.529c-0.395-0.248-0.719-0.573-0.971-0.979
	c-0.25-0.406-0.39-0.914-0.414-1.525h2.381C105.073,28.469,105.128,28.701,105.241,28.894z"/>
<path d="M112.253,20.631v-2.063h2.503v2.063H112.253z M114.756,22.042v9.119h-2.503v-9.119H114.756z"/>
<path d="M124.765,22.042v1.675h-4.926v4.517c0,0.423,0.07,0.705,0.211,0.847c0.141,0.141,0.423,0.212,0.847,0.212
	c0.141,0,0.275-0.007,0.405-0.018c0.13-0.012,0.254-0.03,0.371-0.054v1.94c-0.21,0.036-0.446,0.06-0.705,0.071
	s-0.512,0.017-0.758,0.017c-0.39,0-0.756-0.025-1.103-0.078c-0.347-0.055-0.653-0.156-0.917-0.308
	c-0.265-0.153-0.474-0.372-0.628-0.654c-0.151-0.282-0.227-0.653-0.227-1.11v-5.382h-1.517v-1.675h1.517v-2.734h2.504v2.734H124.765
	z"/>
<path d="M126.522,33.878c-0.483,0.318-1.153,0.476-2.01,0.476c-0.261,0-0.515-0.009-0.768-0.024c-0.253-0.02-0.51-0.04-0.768-0.063
	v-2.064c0.236,0.023,0.479,0.047,0.724,0.07c0.245,0.023,0.494,0.03,0.74,0.018c0.329-0.035,0.574-0.164,0.734-0.389
	c0.157-0.223,0.237-0.469,0.237-0.74c0-0.199-0.037-0.388-0.106-0.564l-3.194-8.555h2.667l2.061,6.245h0.037l1.994-6.245h2.591
	l-3.809,10.248C127.38,33.031,127.004,33.56,126.522,33.878z"/>
</svg>
